<svg id="Сгруппировать_19" data-name="Сгруппировать 19" xmlns="http://www.w3.org/2000/svg" xmlns:xlink="http://www.w3.org/1999/xlink" width="122" height="80.207" viewBox="0 0 122 80.207">
  <defs>
    <clipPath id="clip-path">
      <rect id="Прямоугольник_92" data-name="Прямоугольник 92" width="122" height="80.207" fill="#fff"/>
    </clipPath>
  </defs>
  <g id="Сгруппировать_18" data-name="Сгруппировать 18" clip-path="url(#clip-path)">
    <path id="Контур_41" data-name="Контур 41" d="M61,0q25.186,0,50.373,0a10.446,10.446,0,0,1,10.4,8.377,10.206,10.206,0,0,1,.217,2.14q.017,29.584.008,59.168A10.458,10.458,0,0,1,111.529,80.2q-50.488.013-100.977,0A10.432,10.432,0,0,1,.008,69.689q-.018-29.584,0-59.168A10.456,10.456,0,0,1,10.552.005Q35.777-.009,61,0m52.463,5.1-.042-.241a21.266,21.266,0,0,0-2.2-.223q-39.071-.018-78.142-.01-11.147,0-22.293.01a20,20,0,0,0-2.222.245l-.023.22L61,48.633,113.465,5.1m.415,70.146L78.649,40.04c-.146.114-.351.268-.548.431q-7.718,6.4-15.435,12.8a2.331,2.331,0,0,1-3.336,0Q54.4,49.188,49.476,45.1l-6-4.975L8.313,75.25a19.334,19.334,0,0,0,2.468.319c5.5.029,11.007.015,16.51.015q41.893,0,83.787-.013a25.015,25.015,0,0,0,2.8-.326M5.182,8.346l-.258.048c-.084.857-.239,1.715-.24,2.572q-.023,19.743-.011,39.485c0,6.273-.008,12.545.008,18.818,0,.764.129,1.528.2,2.326L39.6,36.906,5.182,8.346m111.832-.161L82.457,36.863l34.662,34.644a17.188,17.188,0,0,0,.175-1.771q.014-29.625,0-59.25a20.341,20.341,0,0,0-.277-2.3" transform="translate(0.001 0)" fill="#fff"/>
  </g>
</svg>
