<svg xmlns="http://www.w3.org/2000/svg" xmlns:xlink="http://www.w3.org/1999/xlink" width="101.5" height="109.463" viewBox="0 0 101.5 109.463">
  <defs>
    <clipPath id="clip-path">
      <rect id="Прямоугольник_91" data-name="Прямоугольник 91" width="101.5" height="109.463" fill="#fff"/>
    </clipPath>
  </defs>
  <g id="Сгруппировать_17" data-name="Сгруппировать 17" transform="translate(0 -47)">
    <g id="Сгруппировать_16" data-name="Сгруппировать 16" transform="translate(0 47.001)" clip-path="url(#clip-path)">
      <path id="Контур_38" data-name="Контур 38" d="M0,31.558C.761,19.688,4.461,9.4,14.171,2.756c6.761-4.627,12.972-1.9,14.7,6.481,1.4,6.795,2.927,13.74,2.919,20.618,0,3.553-2.477,8.106-5.156,10.434-4.937,4.288-5.542,8.538-2.2,13.684C29.2,61.317,34.184,68.5,39.223,75.631c3.525,4.991,7.9,6.53,12.66,2.032,4.712-4.453,9.256-4.144,14.368-.894,4.232,2.691,8.861,4.648,13.158,7.231,8.971,5.393,9.149,12.76.625,19.221-8.783,6.656-18.5,7.111-28.314,4.121C27.474,99.952-.32,58.933,0,31.558" transform="translate(0 0.355)" fill="#fff"/>
      <path id="Контур_39" data-name="Контур 39" d="M33.55.194C56.7-3.185,90.475,38.449,80.826,60.444,74.561,30.034,58.51,10.935,33.55.194" transform="translate(18.984 -0.001)" fill="#fff"/>
      <path id="Контур_40" data-name="Контур 40" d="M31.764,7.906C50.308,6.25,73.785,34.2,69.16,51.571c-5.1-8.93-8.758-17.965-14.606-24.826C48.613,19.776,40.509,14.951,31.764,7.906" transform="translate(17.974 5.401)" fill="#fff"/>
    </g>
  </g>
</svg>
