<svg xmlns="http://www.w3.org/2000/svg" xmlns:xlink="http://www.w3.org/1999/xlink" width="104" height="103.939" viewBox="0 0 104 103.939">
  <defs>
    <clipPath id="clip-path">
      <rect id="Прямоугольник_17" data-name="Прямоугольник 17" width="104" height="103.939" fill="#4742d7"/>
    </clipPath>
  </defs>
  <g id="Сгруппировать_3" data-name="Сгруппировать 3" clip-path="url(#clip-path)">
    <path id="Контур_31" data-name="Контур 31" d="M52.021,103.938C23.4,103.9-.04,80.59,0,52.194A51.909,51.909,0,0,1,52.077,0C81.106.02,104.052,23.317,104,52.717c-.049,27.973-23.678,51.258-51.979,51.222M67.706,21.473c-6.13-1.285-12.039-1.979-17.931.226A8.985,8.985,0,0,0,43.8,28.446a52.167,52.167,0,0,0-.872,7.445c-.136,1.976-.028,3.968-.028,6.1H36.5v9.644l6.269.339V83.549H55.727V51.738H65.41c.337-3.345.647-6.429.977-9.709H55.751c0-2.806,0-5.438,0-8.071a2.835,2.835,0,0,1,2.218-2.913,11.25,11.25,0,0,1,3.511-.261c1.525.078,3.04.358,4.616.558l1.611-9.869" transform="translate(0 0)" fill="#4742d7"/>
  </g>
</svg>
