<svg xmlns="http://www.w3.org/2000/svg" xmlns:xlink="http://www.w3.org/1999/xlink" width="107.757" height="107.72" viewBox="0 0 107.757 107.72">
  <defs>
    <clipPath id="clip-path">
      <rect id="Прямоугольник_19" data-name="Прямоугольник 19" width="107.757" height="107.72" fill="#4742d7"/>
    </clipPath>
  </defs>
  <g id="Сгруппировать_5" data-name="Сгруппировать 5" clip-path="url(#clip-path)">
    <path id="Контур_32" data-name="Контур 32" d="M53.885,0a53.975,53.975,0,0,1,53.868,53.071c.314,29.612-23.359,54.581-53.469,54.648C23.553,107.788-.233,83.841,0,52.985A53.627,53.627,0,0,1,53.885,0m.553,22.071c0,.092,0,.183-.007.275-4.365,0-8.737-.156-13.095.031-10.256.44-16.747,6.222-17.292,16.4-.525,9.8-.312,19.655.013,29.472a15.967,15.967,0,0,0,15.534,15.4q14.925.425,29.87-.006a15.746,15.746,0,0,0,15.469-15c.424-10.262.388-20.564.029-30.831A15.7,15.7,0,0,0,70.428,22.733c-5.3-.5-10.659-.46-15.991-.661" transform="translate(0 0)" fill="#4742d7"/>
    <path id="Контур_33" data-name="Контур 33" d="M91.377,56.435c5.332.2,10.687.163,15.991.661A15.7,15.7,0,0,1,121.9,72.177c.359,10.267.395,20.569-.029,30.831a15.747,15.747,0,0,1-15.469,15q-14.924.444-29.87.006A15.968,15.968,0,0,1,61,102.613c-.324-9.817-.538-19.674-.013-29.472.546-10.178,7.036-15.96,17.293-16.4,4.357-.187,8.729-.031,13.094-.031,0-.092,0-.183.007-.275m.083,5.483-.007.275c-4.3,0-8.6-.121-12.9.027-7.1.244-11.873,4.065-12.056,10.25-.294,9.947-.275,19.913-.021,29.862a10.346,10.346,0,0,0,10.361,10.2q14.632.346,29.278,0a10.154,10.154,0,0,0,10.274-9.833q.471-15.207,0-30.438c-.165-5.394-4.1-9.175-9.527-9.679-5.11-.475-10.266-.461-15.4-.662" transform="translate(-36.94 -34.364)" fill="#fff"/>
    <path id="Контур_34" data-name="Контур 34" d="M114.737,126.85a15.827,15.827,0,0,1-15.915-15.81,15.9,15.9,0,1,1,31.808.14,15.841,15.841,0,0,1-15.893,15.67" transform="translate(-60.173 -57.945)" fill="#4742d7"/>
    <path id="Контур_35" data-name="Контур 35" d="M176.119,84.061a3.933,3.933,0,0,1,3.625,3.677,3.882,3.882,0,0,1-3.806,3.7,3.69,3.69,0,0,1,.18-7.378" transform="translate(-104.95 -51.185)" fill="#4742d7"/>
  </g>
</svg>
