<svg xmlns="http://www.w3.org/2000/svg" xmlns:xlink="http://www.w3.org/1999/xlink" width="331" height="90.662" viewBox="0 0 331 90.662">
  <defs>
    <clipPath id="clip-path">
      <rect id="Прямоугольник_6" data-name="Прямоугольник 6" width="331" height="90.662" fill="none"/>
    </clipPath>
  </defs>
  <g id="Сгруппировать_26" data-name="Сгруппировать 26" transform="translate(0 0)">
    <g id="Сгруппировать_1" data-name="Сгруппировать 1" transform="translate(0 0)" clip-path="url(#clip-path)">
      <path id="Контур_1" data-name="Контур 1" d="M70.592,13.928h6.337V38.3c0,7.464-4.805,11.779-12.619,11.779a12.97,12.97,0,0,1-10.824-5.941l4.647-3.757s2.323,3.909,6.177,3.909c4.857,0,6.283-3.046,6.283-5.789Z" transform="translate(26.353 6.067)" fill="#56575a"/>
      <path id="Контур_2" data-name="Контур 2" d="M98.686,34.039c0,.458,0,1.371-.054,2.286H79.942c.476,2.132,3.063,4.875,7.023,4.875a10.273,10.273,0,0,0,6.863-2.438L97,43.332a16.372,16.372,0,0,1-10.031,3.453c-7.6,0-13.464-5.585-13.464-12.644a12.593,12.593,0,1,1,25.185-.1m-6.337-2.132c-.1-2.082-2.112-4.875-6.283-4.875-4.065,0-5.913,2.744-6.125,4.875Z" transform="translate(36.214 9.364)" fill="#56575a"/>
      <path id="Контур_3" data-name="Контур 3" d="M94.188,37.51V21.922h6.337V35.835c0,3.555,1.742,5.078,4.962,5.078a6.161,6.161,0,0,0,4.963-2.946V21.922h6.335V45.991h-5.913v-3.5a8.983,8.983,0,0,1-7.5,4.113c-4.8,0-9.186-3.3-9.186-9.089" transform="translate(46.407 9.55)" fill="#56575a"/>
      <path id="Контур_4" data-name="Контур 4" d="M125.339,46.784a12.307,12.307,0,0,1-12.2-12.644,12.307,12.307,0,0,1,12.2-12.644,9.023,9.023,0,0,1,7.549,3.759V22.107h5.86V46.38c0,8.378-6.44,12.085-13.463,12.085a18.337,18.337,0,0,1-11.879-4.57L117,49.222a12.854,12.854,0,0,0,8.289,3.555c4.911,0,7.128-2.59,7.128-6.195V43.688a9.064,9.064,0,0,1-7.074,3.1m7.074-16.249a6.944,6.944,0,0,0-5.966-3.351c-4.275,0-6.863,2.995-6.863,6.956s2.588,6.957,6.863,6.957a7.049,7.049,0,0,0,5.966-3.352Z" transform="translate(55.746 9.364)" fill="#56575a"/>
      <path id="Контур_5" data-name="Контур 5" d="M159.719,50.336h-5.86V47.188a8.7,8.7,0,0,1-7.549,3.757,12.307,12.307,0,0,1-12.2-12.644,12.307,12.307,0,0,1,12.2-12.644,9.029,9.029,0,0,1,7.074,3.148V11.947h6.335ZM153.384,34.7a6.944,6.944,0,0,0-5.966-3.351c-4.275,0-6.863,2.995-6.863,6.956s2.588,6.957,6.863,6.957a6.944,6.944,0,0,0,5.966-3.352Z" transform="translate(66.078 5.204)" fill="#56575a"/>
      <path id="Контур_6" data-name="Контур 6" d="M179.8,34.747V50.336h-6.335V36.271c0-3.453-2.218-4.926-4.963-4.926-3.275,0-4.965,3.148-4.965,3.148V50.336H157.2V11.948h6.335V29.161a8.557,8.557,0,0,1,7.077-3.5c4.857,0,9.186,3.3,9.186,9.09" transform="translate(77.455 5.204)" fill="#56575a"/>
      <path id="Контур_7" data-name="Контур 7" d="M177.29,37.51V21.922h6.335V35.835c0,3.555,1.743,5.078,4.963,5.078a6.158,6.158,0,0,0,4.963-2.946V21.922h6.337V45.991h-5.914v-3.5a8.983,8.983,0,0,1-7.5,4.113c-4.8,0-9.186-3.3-9.186-9.089" transform="translate(87.352 9.55)" fill="#56575a"/>
      <path id="Контур_8" data-name="Контур 8" d="M201.547,13.715a4.015,4.015,0,1,1-4.171,4.013,4.07,4.07,0,0,1,4.171-4.013M198.379,25.5h6.337V49.566h-6.337Z" transform="translate(97.248 5.974)" fill="#56575a"/>
      <path id="Контур_9" data-name="Контур 9" d="M210.39,38s3.327,3.453,7.552,3.453c2.585,0,4.75-.711,4.75-2.184,0-1.573-1.161-1.879-4.962-2.64-4.963-1.016-9.294-3.048-9.294-7.618,0-3.757,3.908-7.516,10.771-7.516a16.356,16.356,0,0,1,9.4,2.946l-3.168,4.468a11.9,11.9,0,0,0-6.231-2.082c-2.376,0-4.541.813-4.541,2.286s1.69,1.828,5.913,2.692c4.963,1.015,8.5,2.59,8.5,7.566,0,4.113-4.541,7.414-10.93,7.414a15.865,15.865,0,0,1-11.3-4.367Z" transform="translate(101.918 9.364)" fill="#56575a"/>
      <rect id="Прямоугольник_4" data-name="Прямоугольник 4" width="4.481" height="1.84" transform="translate(110.872 80.057)" fill="#56575a"/>
      <path id="Контур_10" data-name="Контур 10" d="M82.236,51.311h4a3.626,3.626,0,1,1,0,7.233H84.251v4.069H82.236Zm5.842,3.616c0-1.065-.721-1.776-2.1-1.776H84.251V56.7H85.98c1.378,0,2.1-.711,2.1-1.776" transform="translate(40.518 22.353)" fill="#56575a"/>
      <path id="Контур_11" data-name="Контур 11" d="M89.051,51.311h2.015v9.461h5v1.84H89.051Z" transform="translate(43.876 22.353)" fill="#56575a"/>
      <path id="Контур_12" data-name="Контур 12" d="M98.925,51.311h2.048l4.566,11.3h-2.032l-1.075-2.68H97.465l-1.075,2.68H94.359Zm-.739,6.845h3.526l-1.763-4.407Z" transform="translate(46.491 22.353)" fill="#56575a"/>
      <path id="Контур_13" data-name="Контур 13" d="M111.789,59.668l1.343,1.276a6,6,0,0,1-4.515,1.921,5.846,5.846,0,1,1,0-11.689,5.974,5.974,0,0,1,4.347,1.776l-1.36,1.275a4.1,4.1,0,0,0-2.987-1.243,4.038,4.038,0,0,0,0,8.073,4.233,4.233,0,0,0,3.172-1.388" transform="translate(50.58 22.294)" fill="#56575a"/>
      <path id="Контур_14" data-name="Контур 14" d="M113.173,55.9h4.7v1.84h-4.7v3.035h5.2v1.84h-7.219v-11.3h7.119v1.84h-5.1Z" transform="translate(54.768 22.353)" fill="#56575a"/>
      <path id="Контур_15" data-name="Контур 15" d="M124.781,51.311H126.8v11.3h-2.015v-4.86h-5.018v4.86h-2.015v-11.3h2.015v4.6h5.018Z" transform="translate(58.015 22.353)" fill="#56575a"/>
      <path id="Контур_16" data-name="Контур 16" d="M137.358,57.021a5.943,5.943,0,1,1-5.942-5.844,5.737,5.737,0,0,1,5.942,5.844m-2.048,0a3.9,3.9,0,1,0-3.894,4,3.836,3.836,0,0,0,3.894-4" transform="translate(61.821 22.294)" fill="#56575a"/>
      <path id="Контур_17" data-name="Контур 17" d="M135.1,51.311h2.015v9.461h5v1.84H135.1Z" transform="translate(66.564 22.353)" fill="#56575a"/>
      <path id="Контур_18" data-name="Контур 18" d="M150.773,56.962a5.518,5.518,0,0,1-5.808,5.651H141.17v-11.3h3.794a5.518,5.518,0,0,1,5.808,5.651m-2.048,0A3.654,3.654,0,0,0,145,53.151h-1.814v7.62H145a3.662,3.662,0,0,0,3.726-3.81" transform="translate(69.555 22.353)" fill="#56575a"/>
      <path id="Контур_19" data-name="Контур 19" d="M151.282,55.9h4.7v1.84h-4.7v3.035h5.2v1.84h-7.219v-11.3h7.119v1.84h-5.1Z" transform="translate(73.545 22.353)" fill="#56575a"/>
      <path id="Контур_20" data-name="Контур 20" d="M155.856,51.311h3.862c2.332,0,3.893,1.454,3.893,3.52a3.285,3.285,0,0,1-2.618,3.391l2.938,4.39h-2.35l-2.787-4.261h-.924v4.261h-2.014Zm5.707,3.52c0-1.114-.8-1.678-2.1-1.678h-1.6v3.357h1.6c1.293,0,2.1-.564,2.1-1.678" transform="translate(76.791 22.353)" fill="#56575a"/>
      <path id="Контур_21" data-name="Контур 21" d="M166.617,51.311h2.015v9.461h5v1.84h-7.017Z" transform="translate(82.093 22.353)" fill="#56575a"/>
      <path id="Контур_22" data-name="Контур 22" d="M184.125,57.021a5.943,5.943,0,1,1-5.942-5.844,5.737,5.737,0,0,1,5.942,5.844m-2.048,0a3.9,3.9,0,1,0-3.894,4,3.836,3.836,0,0,0,3.894-4" transform="translate(84.864 22.294)" fill="#56575a"/>
      <path id="Контур_23" data-name="Контур 23" d="M189.959,60.508v-2.39H187.29V56.31h4.65v5.134a6.557,6.557,0,0,1-4.348,1.421,5.927,5.927,0,0,1-6.177-5.844,6.193,6.193,0,0,1,10.441-4.149l-1.376,1.292a3.948,3.948,0,0,0-2.972-1.18,3.99,3.99,0,0,0-4.047,4.037,4.061,4.061,0,0,0,4.13,4.036,3.989,3.989,0,0,0,2.367-.548" transform="translate(89.384 22.294)" fill="#56575a"/>
      <path id="Контур_24" data-name="Контур 24" d="M201.768,57.021a5.943,5.943,0,1,1-5.942-5.844,5.737,5.737,0,0,1,5.942,5.844m-2.048,0a3.9,3.9,0,1,0-3.895,4,3.836,3.836,0,0,0,3.895-4" transform="translate(93.556 22.294)" fill="#56575a"/>
      <rect id="Прямоугольник_5" data-name="Прямоугольник 5" width="4.483" height="1.84" transform="translate(299.67 80.057)" fill="#56575a"/>
      <path id="Контур_25" data-name="Контур 25" d="M31.863,38.46c.166,1.081-1.484,2.212-3.685,2.525a7.3,7.3,0,0,1-2.221-.009.947.947,0,0,0-1.085.666l-.485,1.792-.5-3.84c-.167-1.081,1.484-2.211,3.685-2.525s4.123.31,4.289,1.391" transform="translate(11.764 16.113)" fill="#56575a"/>
      <path id="Контур_26" data-name="Контур 26" d="M21.852,37.069c2.2.313,3.853,1.444,3.685,2.525l-.5,3.84-.485-1.792a.947.947,0,0,0-1.085-.666,7.305,7.305,0,0,1-2.221.007c-2.2-.313-3.851-1.443-3.685-2.524s2.087-1.7,4.289-1.391" transform="translate(8.648 16.113)" fill="#56575a"/>
      <path id="Контур_27" data-name="Контур 27" d="M43.2,47.019c1.063.243,2.441,1.171,2.376,2.4l-5.393-.943a64.957,64.957,0,0,0-22.394,0l-5.393.943c-.064-1.227,1.314-2.156,2.376-2.4q.446-.1.909-.2a63.357,63.357,0,0,1,26.609,0c.307.066.612.134.909.2" transform="translate(6.106 19.78)" fill="#56575a"/>
      <path id="Контур_28" data-name="Контур 28" d="M.57,42.927c-1.676-5.273.946-7.922.212-15.38-.234-2.376,2.106-3.895,5.113-3.895a9.277,9.277,0,0,1,1.4.111,2.752,2.752,0,0,0-.427,1.628l.066,1.164c0,.04.012.079.015.118a7.054,7.054,0,0,0-1.055-.082,3.247,3.247,0,0,0-2.279.65v.009a31.6,31.6,0,0,1-.409,8.826c-.366,2.291-.608,3.8.07,5.935a6.345,6.345,0,0,0,2.1,3.156q.893-5.45,1.79-10.9c-1.351,1.008-2.494,4.74-2.494,4.74a8.353,8.353,0,0,1,1.684-6.914c-.769-1.4-1.345-2.306-1.345-2.306a11.1,11.1,0,0,1,2.627,1.606q.228-1.389.455-2.777a3.122,3.122,0,0,0,.528.322.417.417,0,0,1,.073.155c.076.243.188.715.319,1.263.543,2.274,1.451,6.081,2.994,7.956a7,7,0,0,0,2.317,1.8,2.907,2.907,0,0,0,.633.287,17,17,0,0,0,6.308,1.014c-2.6,2.97-6.734,8.439-7.119,13.888a14.283,14.283,0,0,0,.625,5.405,2.944,2.944,0,0,0,3.765,1.823,32.268,32.268,0,0,1,12.984-1.68s-9.54,2.521-12.718,6.129c3,2.845,10.7,2.719,14.328,2.484a29.853,29.853,0,0,1,3.909,0c3.56.233,11.006.345,13.988-2.488-3.179-3.608-12.719-6.129-12.719-6.129A32.288,32.288,0,0,1,51.3,62.533a2.942,2.942,0,0,0,3.763-1.823,14.283,14.283,0,0,0,.624-5.405c-.384-5.45-4.515-10.918-7.117-13.888A17.006,17.006,0,0,0,54.878,40.4a2.94,2.94,0,0,0,.633-.287,7.024,7.024,0,0,0,2.318-1.8c1.54-1.875,2.45-5.682,2.993-7.956.13-.548.245-1.021.316-1.259a.505.505,0,0,1,.072-.155,3.169,3.169,0,0,0,.531-.326q.231,1.389.457,2.777a11.05,11.05,0,0,1,2.629-1.606s-.578.906-1.345,2.306a8.351,8.351,0,0,1,1.681,6.914s-1.142-3.733-2.491-4.74q.891,5.448,1.788,10.9a6.355,6.355,0,0,0,2.1-3.156c.676-2.13.436-3.644.07-5.935a31.768,31.768,0,0,1-.41-8.826l0-.009a3.253,3.253,0,0,0-2.279-.65,7.058,7.058,0,0,0-1.057.082c0-.04.012-.08.015-.121l.064-1.16a2.721,2.721,0,0,0-.425-1.629,9.312,9.312,0,0,1,1.4-.111c3,0,5.344,1.519,5.113,3.895-.736,7.458,1.887,10.107.209,15.38a8.97,8.97,0,0,1-3.875,5.108,15.8,15.8,0,0,1,1.382,10.2,21.942,21.942,0,0,0-1.2-3.249c-.006.093-.018.187-.024.28.007,1.275-.152,6.89-3.521,10.418a15.357,15.357,0,0,0,.331-2.97c-.64,2.172-2.145,5.944-5.274,8.114a16.67,16.67,0,0,0,1.17-3.924l-.052.047c-.706,1.437-3.278,6.089-7.664,7.839a17.117,17.117,0,0,0,2.1-3.625c-.039.026-.078.05-.113.076a35.676,35.676,0,0,1-7.995,6.592s.931-1.223,1.932-2.834a34.941,34.941,0,0,1-8.244,4.74s.573-.548,1.352-1.381c-2.79,1.282-4.645,2-4.66,1.994s-1.867-.712-4.659-1.994c.781.833,1.351,1.381,1.351,1.381A34.927,34.927,0,0,1,23.369,75c1,1.611,1.93,2.834,1.93,2.834a35.611,35.611,0,0,1-7.992-6.592l-.115-.076A17.117,17.117,0,0,0,19.3,74.8c-4.384-1.75-6.956-6.4-7.664-7.839l-.052-.047a16.67,16.67,0,0,0,1.17,3.924c-3.13-2.171-4.635-5.942-5.274-8.114a15.442,15.442,0,0,0,.33,2.97C4.44,62.16,4.278,56.545,4.289,55.271c-.007-.093-.019-.187-.024-.28a22.061,22.061,0,0,0-1.2,3.249,15.811,15.811,0,0,1,1.381-10.2A8.976,8.976,0,0,1,.57,42.927" transform="translate(0 10.303)" fill="#56575a"/>
      <path id="Контур_29" data-name="Контур 29" d="M15.7,36.649c.067-.086.137-.168.21-.247a4.66,4.66,0,0,1,3.448-1.354,13.933,13.933,0,0,1,1.561.085c2.257.233,4.868.86,6.5.863h.339c1.635,0,4.244-.63,6.5-.863a13.971,13.971,0,0,1,1.561-.085A4.66,4.66,0,0,1,39.273,36.4c.073.079.143.161.21.247a3.918,3.918,0,0,1-.834,5.61,5.063,5.063,0,0,0-.927-4.347,4.018,4.018,0,0,0-1.642-1.255,5.146,5.146,0,0,0-3.133-.218,31.765,31.765,0,0,1-5.354.871,31.774,31.774,0,0,1-5.353-.871,5.15,5.15,0,0,0-3.135.218,4.014,4.014,0,0,0-1.64,1.255,5.059,5.059,0,0,0-.928,4.347,3.918,3.918,0,0,1-.834-5.61" transform="translate(7.328 15.268)" fill="#56575a"/>
      <path id="Контур_30" data-name="Контур 30" d="M64.923,30.691c5.024-2.118,9.9-5.354,8.537-9.669-1.442-4.555-9.815-7.079-19.605-6.605C52.568,8.43,47.251,0,31.139,1.335c-.115-.821-.084-1.7-2.794-1.18-1.882.36-1.881.949-1.717,1.654a.659.659,0,0,1,.007.109,63.408,63.408,0,0,0-9.786,3.27c-.015.006.022-.022.034-.033a19.615,19.615,0,0,0-4.917,2.962,17.252,17.252,0,0,0-5.457,8.229c-1.37,4.357-1.43,9.831.243,16.5-.049.1-.1.212-.143.32-.152.353-.291.718-.415,1.087a1.545,1.545,0,0,0-.7,1.375l.064,1.161A1.582,1.582,0,0,0,6.51,38.1a1.434,1.434,0,0,1,.755.932c.406,1.308,1.351,6.69,3.082,8.793,1.812,2.2,5.384,2.619,8.335,2.619.549,0,1.078-.014,1.569-.034,4.211-.174,6.969-1.974,8.146-5.022s1.841-5.658,2.594-6.486a1.808,1.808,0,0,1,2.447,0c.754.828,1.417,3.44,2.594,6.486s3.935,4.848,8.146,5.022c.491.02,1.02.034,1.569.034,2.951,0,6.523-.416,8.335-2.619,1.732-2.1,2.676-7.485,3.082-8.793a1.434,1.434,0,0,1,.755-.932,1.582,1.582,0,0,0,.955-1.315l.064-1.161a1.559,1.559,0,0,0-1.008-1.532c-.11-.316-.231-.627-.363-.93l-.006-.011c1.432-.378,3.439-.96,5.554-1.746.6-.223,1.2-.461,1.8-.715M46.93,36.912h4.639a1.975,1.975,0,0,1,2.012,1.935v2.344a7.477,7.477,0,0,0-2.37-2.574,17.689,17.689,0,0,0-4.281-1.706m-27.4,0h4.639a1.975,1.975,0,0,1,2.012,1.935v2.344a7.477,7.477,0,0,0-2.37-2.574,17.713,17.713,0,0,0-4.281-1.706m8.216-9.129.537-.07c7.6-.97,14.776-.929,19.056.593,3.46,1.232,4.853,2.6,7.993,5.264a44,44,0,0,0-6.454-.445,43.754,43.754,0,0,0-11.637,1.381,18.28,18.28,0,0,1-5.024,1.213,18.255,18.255,0,0,1-5.024-1.213,43.775,43.775,0,0,0-11.639-1.381,42.9,42.9,0,0,0-7.032.537,2.014,2.014,0,0,1,.251-.26c.661-.566,1.251-1.13,1.787-1.687a93.906,93.906,0,0,1,17.187-3.932M57.6,32.2s18.171-7.23,13.461-9.8c-3.8-2.073-5.887-2.56-14.182-2.706-9.749-.172-15.673.764-27.1,4.267-3.635,1.114-12.483,3.054-12.846,3.177,0,0,2.569-7.444,33.195-11.044,10.055-1.183,19.866.488,21.982,4.573,3.32,6.414-10.647,10.325-14.5,11.534" transform="translate(2.704 -0.001)" fill="#56575a"/>
    </g>
  </g>
</svg>
