<svg id="Сгруппировать_10" data-name="Сгруппировать 10" xmlns="http://www.w3.org/2000/svg" xmlns:xlink="http://www.w3.org/1999/xlink" width="105.939" height="100.156" viewBox="0 0 105.939 100.156">
  <defs>
    <clipPath id="clip-path">
      <rect id="Прямоугольник_20" data-name="Прямоугольник 20" width="105.939" height="100.156" fill="#4742d7"/>
    </clipPath>
  </defs>
  <g id="Сгруппировать_8" data-name="Сгруппировать 8" clip-path="url(#clip-path)">
    <path id="Контур_36" data-name="Контур 36" d="M52.843,100.156C23.92,100.307.048,78.031,0,50.18-.05,21.646,23.9,1,50.9.038c30.041-1.071,54.815,21.445,55.04,49.479C106.163,77.7,82.675,100,52.843,100.156m-.559-59.28C42,40.616,33.736,36.469,26.9,28.961c-2.521,6.146-1.687,11.126,3.67,15.192l-.371.4-4.985-.891c.035,5.814,4.687,8.263,9.568,11l-4.911.526c2.06,4.525,6.2,6.148,10.888,7.665-2.243,1.209-4.014,2.5-6.018,3.167-3.2,1.06-6.554,1.7-9.838,2.521a1.7,1.7,0,0,0,.415.4A30.019,30.019,0,0,0,44.7,73.27c6.456-.656,12.1-3.418,17.315-6.884C72.028,59.727,76.874,50.56,76.46,38.935a2.606,2.606,0,0,1,1.008-1.656c1.338-1.157,2.781-2.205,4.182-3.3l-.353-.335-5.627.411c4.461-3.782,4.492-3.823,4.423-5.553a48.47,48.47,0,0,1-4.87,1.525,3.654,3.654,0,0,1-2.629-.373c-7.514-5.879-17.674-2.608-19.657,6.422-.346,1.576-.443,3.2-.654,4.8" transform="translate(0 -0.001)" fill="#4742d7"/>
  </g>
</svg>
